<mxfile host="app.diagrams.net" agent="Mozilla/5.0 (Windows NT 10.0; Win64; x64) AppleWebKit/537.36 (KHTML, like Gecko) Chrome/129.0.0.0 Safari/537.36" version="24.7.17">
  <diagram name="Page-1" id="H5CIHULa0UfHKtkcHchE">
    <mxGraphModel dx="1203" dy="819" grid="1" gridSize="10" guides="1" tooltips="1" connect="1" arrows="1" fold="1" page="1" pageScale="1" pageWidth="850" pageHeight="1100" math="0" shadow="0">
      <root>
        <mxCell id="0" />
        <mxCell id="1" parent="0" />
        <mxCell id="LhJG_7B_9xfO0NoJyH6I-1" value="" style="rounded=1;whiteSpace=wrap;html=1;" parent="1" vertex="1">
          <mxGeometry x="45" y="40" width="760" height="558" as="geometry" />
        </mxCell>
        <mxCell id="LhJG_7B_9xfO0NoJyH6I-11" value="VPC" style="outlineConnect=0;gradientColor=none;html=1;whiteSpace=wrap;fontSize=12;fontStyle=0;shape=mxgraph.aws4.group;grIcon=mxgraph.aws4.group_vpc;strokeColor=#879196;fillColor=none;verticalAlign=top;align=left;spacingLeft=30;fontColor=#879196;dashed=0;" parent="1" vertex="1">
          <mxGeometry x="70" y="80" width="690" height="410" as="geometry" />
        </mxCell>
        <mxCell id="LhJG_7B_9xfO0NoJyH6I-19" style="rounded=0;orthogonalLoop=1;jettySize=auto;html=1;exitX=0.92;exitY=0.5;exitDx=0;exitDy=0;exitPerimeter=0;entryX=0.07;entryY=0.4;entryDx=0;entryDy=0;entryPerimeter=0;" parent="1" source="LhJG_7B_9xfO0NoJyH6I-8" target="LhJG_7B_9xfO0NoJyH6I-13" edge="1">
          <mxGeometry relative="1" as="geometry">
            <mxPoint x="240" y="600" as="targetPoint" />
          </mxGeometry>
        </mxCell>
        <mxCell id="LhJG_7B_9xfO0NoJyH6I-8" value="SOC Analyst" style="sketch=0;aspect=fixed;pointerEvents=1;shadow=0;dashed=0;html=1;strokeColor=none;labelPosition=center;verticalLabelPosition=bottom;verticalAlign=top;align=center;fillColor=#00188D;shape=mxgraph.azure.laptop" parent="1" vertex="1">
          <mxGeometry x="31.340000000000003" y="640" width="133.33" height="80" as="geometry" />
        </mxCell>
        <mxCell id="LhJG_7B_9xfO0NoJyH6I-9" value="Kali LInux" style="verticalLabelPosition=bottom;html=1;verticalAlign=top;align=center;strokeColor=#b85450;fillColor=#f8cecc;shape=mxgraph.azure.laptop;pointerEvents=1;gradientColor=#FF0000;" parent="1" vertex="1">
          <mxGeometry x="680" y="640" width="120" height="80" as="geometry" />
        </mxCell>
        <mxCell id="LhJG_7B_9xfO0NoJyH6I-23" style="edgeStyle=orthogonalEdgeStyle;rounded=0;orthogonalLoop=1;jettySize=auto;html=1;exitX=0.5;exitY=0;exitDx=0;exitDy=0;exitPerimeter=0;" parent="1" source="LhJG_7B_9xfO0NoJyH6I-12" target="LhJG_7B_9xfO0NoJyH6I-11" edge="1">
          <mxGeometry relative="1" as="geometry">
            <Array as="points">
              <mxPoint x="430" y="490" />
              <mxPoint x="430" y="490" />
            </Array>
          </mxGeometry>
        </mxCell>
        <mxCell id="LhJG_7B_9xfO0NoJyH6I-12" value="" style="outlineConnect=0;dashed=0;verticalLabelPosition=bottom;verticalAlign=top;align=center;html=1;shape=mxgraph.aws3.internet_gateway;fillColor=#F58534;gradientColor=none;" parent="1" vertex="1">
          <mxGeometry x="391" y="510" width="69" height="72" as="geometry" />
        </mxCell>
        <mxCell id="LhJG_7B_9xfO0NoJyH6I-13" value="Internet" style="ellipse;shape=cloud;whiteSpace=wrap;html=1;" parent="1" vertex="1">
          <mxGeometry x="375" y="610" width="124" height="80" as="geometry" />
        </mxCell>
        <mxCell id="LhJG_7B_9xfO0NoJyH6I-16" style="edgeStyle=orthogonalEdgeStyle;rounded=0;orthogonalLoop=1;jettySize=auto;html=1;exitX=0.08;exitY=0.5;exitDx=0;exitDy=0;exitPerimeter=0;entryX=0.935;entryY=0.5;entryDx=0;entryDy=0;entryPerimeter=0;" parent="1" source="LhJG_7B_9xfO0NoJyH6I-9" target="LhJG_7B_9xfO0NoJyH6I-13" edge="1">
          <mxGeometry relative="1" as="geometry" />
        </mxCell>
        <mxCell id="LhJG_7B_9xfO0NoJyH6I-17" style="edgeStyle=orthogonalEdgeStyle;rounded=0;orthogonalLoop=1;jettySize=auto;html=1;exitX=0;exitY=0.5;exitDx=0;exitDy=0;entryX=0.605;entryY=0.975;entryDx=0;entryDy=0;entryPerimeter=0;" parent="1" target="LhJG_7B_9xfO0NoJyH6I-13" edge="1">
          <mxGeometry relative="1" as="geometry">
            <mxPoint x="550" y="760" as="sourcePoint" />
          </mxGeometry>
        </mxCell>
        <mxCell id="LhJG_7B_9xfO0NoJyH6I-22" style="edgeStyle=orthogonalEdgeStyle;rounded=0;orthogonalLoop=1;jettySize=auto;html=1;exitX=0.4;exitY=0.1;exitDx=0;exitDy=0;exitPerimeter=0;entryX=0.5;entryY=1;entryDx=0;entryDy=0;entryPerimeter=0;" parent="1" source="LhJG_7B_9xfO0NoJyH6I-13" target="LhJG_7B_9xfO0NoJyH6I-12" edge="1">
          <mxGeometry relative="1" as="geometry" />
        </mxCell>
        <mxCell id="LhJG_7B_9xfO0NoJyH6I-27" value="VULTR" style="text;html=1;align=center;verticalAlign=middle;whiteSpace=wrap;rounded=0;" parent="1" vertex="1">
          <mxGeometry x="104.67" y="50" width="60" height="30" as="geometry" />
        </mxCell>
        <mxCell id="LhJG_7B_9xfO0NoJyH6I-30" value="Elastic &amp;amp; Kibana" style="text;html=1;align=center;verticalAlign=middle;whiteSpace=wrap;rounded=0;" parent="1" vertex="1">
          <mxGeometry x="395" y="450" width="60" height="30" as="geometry" />
        </mxCell>
        <mxCell id="LhJG_7B_9xfO0NoJyH6I-33" value="" style="outlineConnect=0;dashed=0;verticalLabelPosition=bottom;verticalAlign=top;align=center;html=1;shape=mxgraph.aws3.traditional_server;fillColor=#cce5ff;strokeColor=#36393d;" parent="1" vertex="1">
          <mxGeometry x="657" y="379" width="46.5" height="63" as="geometry" />
        </mxCell>
        <mxCell id="LhJG_7B_9xfO0NoJyH6I-34" value="" style="outlineConnect=0;dashed=0;verticalLabelPosition=bottom;verticalAlign=top;align=center;html=1;shape=mxgraph.aws3.traditional_server;fillColor=#ffcc99;strokeColor=#36393d;" parent="1" vertex="1">
          <mxGeometry x="402" y="379" width="46.5" height="63" as="geometry" />
        </mxCell>
        <mxCell id="LhJG_7B_9xfO0NoJyH6I-35" value="" style="outlineConnect=0;dashed=0;verticalLabelPosition=bottom;verticalAlign=top;align=center;html=1;shape=mxgraph.aws3.traditional_server;fillColor=#cdeb8b;strokeColor=#36393d;" parent="1" vertex="1">
          <mxGeometry x="402" y="180" width="46.5" height="63" as="geometry" />
        </mxCell>
        <mxCell id="LhJG_7B_9xfO0NoJyH6I-36" value="" style="outlineConnect=0;dashed=0;verticalLabelPosition=bottom;verticalAlign=top;align=center;html=1;shape=mxgraph.aws3.traditional_server;fillColor=#ffff88;strokeColor=#36393d;" parent="1" vertex="1">
          <mxGeometry x="657" y="180" width="46.5" height="63" as="geometry" />
        </mxCell>
        <mxCell id="LhJG_7B_9xfO0NoJyH6I-37" value="" style="outlineConnect=0;dashed=0;verticalLabelPosition=bottom;verticalAlign=top;align=center;html=1;shape=mxgraph.aws3.traditional_server;fillColor=#ffcccc;strokeColor=#36393d;" parent="1" vertex="1">
          <mxGeometry x="140" y="180" width="46.5" height="63" as="geometry" />
        </mxCell>
        <mxCell id="LhJG_7B_9xfO0NoJyH6I-38" value="" style="outlineConnect=0;dashed=0;verticalLabelPosition=bottom;verticalAlign=top;align=center;html=1;shape=mxgraph.aws3.traditional_server;fillColor=#f8cecc;strokeColor=#b85450;gradientColor=#ea6b66;" parent="1" vertex="1">
          <mxGeometry x="550" y="730" width="46.5" height="63" as="geometry" />
        </mxCell>
        <mxCell id="LhJG_7B_9xfO0NoJyH6I-39" style="edgeStyle=orthogonalEdgeStyle;rounded=0;orthogonalLoop=1;jettySize=auto;html=1;exitX=0.5;exitY=1;exitDx=0;exitDy=0;exitPerimeter=0;entryX=0.5;entryY=0;entryDx=0;entryDy=0;entryPerimeter=0;" parent="1" source="LhJG_7B_9xfO0NoJyH6I-35" target="LhJG_7B_9xfO0NoJyH6I-34" edge="1">
          <mxGeometry relative="1" as="geometry" />
        </mxCell>
        <mxCell id="LhJG_7B_9xfO0NoJyH6I-59" value="Manage Agents" style="edgeLabel;html=1;align=center;verticalAlign=middle;resizable=0;points=[];" parent="LhJG_7B_9xfO0NoJyH6I-39" vertex="1" connectable="0">
          <mxGeometry x="-0.0294" y="5" relative="1" as="geometry">
            <mxPoint as="offset" />
          </mxGeometry>
        </mxCell>
        <mxCell id="LhJG_7B_9xfO0NoJyH6I-40" style="rounded=0;orthogonalLoop=1;jettySize=auto;html=1;exitX=0.5;exitY=1;exitDx=0;exitDy=0;exitPerimeter=0;entryX=0;entryY=0.5;entryDx=0;entryDy=0;entryPerimeter=0;" parent="1" source="LhJG_7B_9xfO0NoJyH6I-37" target="LhJG_7B_9xfO0NoJyH6I-34" edge="1">
          <mxGeometry relative="1" as="geometry" />
        </mxCell>
        <mxCell id="LhJG_7B_9xfO0NoJyH6I-60" value="Forward logs via agents" style="edgeLabel;html=1;align=center;verticalAlign=middle;resizable=0;points=[];" parent="LhJG_7B_9xfO0NoJyH6I-40" vertex="1" connectable="0">
          <mxGeometry x="-0.2009" y="2" relative="1" as="geometry">
            <mxPoint y="-1" as="offset" />
          </mxGeometry>
        </mxCell>
        <mxCell id="LhJG_7B_9xfO0NoJyH6I-41" style="rounded=0;orthogonalLoop=1;jettySize=auto;html=1;exitX=0.5;exitY=1;exitDx=0;exitDy=0;exitPerimeter=0;entryX=1;entryY=0.5;entryDx=0;entryDy=0;entryPerimeter=0;" parent="1" source="LhJG_7B_9xfO0NoJyH6I-36" target="LhJG_7B_9xfO0NoJyH6I-34" edge="1">
          <mxGeometry relative="1" as="geometry" />
        </mxCell>
        <mxCell id="LhJG_7B_9xfO0NoJyH6I-61" value="Forward logs via agents" style="edgeLabel;html=1;align=center;verticalAlign=middle;resizable=0;points=[];" parent="LhJG_7B_9xfO0NoJyH6I-41" vertex="1" connectable="0">
          <mxGeometry x="-0.2936" y="1" relative="1" as="geometry">
            <mxPoint as="offset" />
          </mxGeometry>
        </mxCell>
        <mxCell id="LhJG_7B_9xfO0NoJyH6I-47" style="edgeStyle=orthogonalEdgeStyle;rounded=0;orthogonalLoop=1;jettySize=auto;html=1;exitX=0;exitY=0.5;exitDx=0;exitDy=0;exitPerimeter=0;entryX=1;entryY=0.5;entryDx=0;entryDy=0;entryPerimeter=0;dashed=1;endArrow=classic;endFill=1;startArrow=classic;startFill=1;" parent="1" source="LhJG_7B_9xfO0NoJyH6I-33" target="LhJG_7B_9xfO0NoJyH6I-34" edge="1">
          <mxGeometry relative="1" as="geometry" />
        </mxCell>
        <mxCell id="LhJG_7B_9xfO0NoJyH6I-56" value="Alerts/Tickets" style="edgeLabel;html=1;align=center;verticalAlign=middle;resizable=0;points=[];" parent="LhJG_7B_9xfO0NoJyH6I-47" vertex="1" connectable="0">
          <mxGeometry x="-0.0695" y="3" relative="1" as="geometry">
            <mxPoint as="offset" />
          </mxGeometry>
        </mxCell>
        <mxCell id="LhJG_7B_9xfO0NoJyH6I-48" value="Ubuntu server SSH enabled" style="text;html=1;align=center;verticalAlign=middle;whiteSpace=wrap;rounded=0;" parent="1" vertex="1">
          <mxGeometry x="133.25" y="110" width="60" height="30" as="geometry" />
        </mxCell>
        <mxCell id="LhJG_7B_9xfO0NoJyH6I-49" value="Fleet Server" style="text;html=1;align=center;verticalAlign=middle;whiteSpace=wrap;rounded=0;" parent="1" vertex="1">
          <mxGeometry x="395" y="110" width="60" height="30" as="geometry" />
        </mxCell>
        <mxCell id="LhJG_7B_9xfO0NoJyH6I-50" value="Windows server RDP enabled" style="text;html=1;align=center;verticalAlign=middle;whiteSpace=wrap;rounded=0;" parent="1" vertex="1">
          <mxGeometry x="650.25" y="110" width="60" height="30" as="geometry" />
        </mxCell>
        <mxCell id="LhJG_7B_9xfO0NoJyH6I-51" style="edgeStyle=orthogonalEdgeStyle;rounded=0;orthogonalLoop=1;jettySize=auto;html=1;exitX=1;exitY=0.5;exitDx=0;exitDy=0;exitPerimeter=0;entryX=0;entryY=0.5;entryDx=0;entryDy=0;entryPerimeter=0;" parent="1" source="LhJG_7B_9xfO0NoJyH6I-37" target="LhJG_7B_9xfO0NoJyH6I-35" edge="1">
          <mxGeometry relative="1" as="geometry" />
        </mxCell>
        <mxCell id="LhJG_7B_9xfO0NoJyH6I-57" value="Managed" style="edgeLabel;html=1;align=center;verticalAlign=middle;resizable=0;points=[];" parent="LhJG_7B_9xfO0NoJyH6I-51" vertex="1" connectable="0">
          <mxGeometry x="-0.2436" relative="1" as="geometry">
            <mxPoint y="1" as="offset" />
          </mxGeometry>
        </mxCell>
        <mxCell id="LhJG_7B_9xfO0NoJyH6I-52" style="edgeStyle=orthogonalEdgeStyle;rounded=0;orthogonalLoop=1;jettySize=auto;html=1;exitX=0;exitY=0.5;exitDx=0;exitDy=0;exitPerimeter=0;entryX=1;entryY=0.5;entryDx=0;entryDy=0;entryPerimeter=0;" parent="1" source="LhJG_7B_9xfO0NoJyH6I-36" target="LhJG_7B_9xfO0NoJyH6I-35" edge="1">
          <mxGeometry relative="1" as="geometry" />
        </mxCell>
        <mxCell id="LhJG_7B_9xfO0NoJyH6I-58" value="Managed" style="edgeLabel;html=1;align=center;verticalAlign=middle;resizable=0;points=[];" parent="LhJG_7B_9xfO0NoJyH6I-52" vertex="1" connectable="0">
          <mxGeometry x="-0.0504" y="5" relative="1" as="geometry">
            <mxPoint as="offset" />
          </mxGeometry>
        </mxCell>
        <mxCell id="LhJG_7B_9xfO0NoJyH6I-53" value="OnTicket Server" style="text;html=1;align=center;verticalAlign=middle;whiteSpace=wrap;rounded=0;" parent="1" vertex="1">
          <mxGeometry x="650" y="450" width="60" height="30" as="geometry" />
        </mxCell>
        <mxCell id="1WzqkuWj_8uISui3xzmY-1" value="Private Network: 172.32.0/24&lt;br&gt;IP Range: 172.32.0.254&lt;br&gt;&lt;div style=&quot;&quot;&gt;&lt;span style=&quot;background-color: initial;&quot;&gt;Subnet Mask: 255.255.255.0.&lt;/span&gt;&lt;/div&gt;" style="text;html=1;align=left;verticalAlign=middle;whiteSpace=wrap;rounded=0;" vertex="1" parent="1">
          <mxGeometry x="80" y="360" width="100" height="30" as="geometry" />
        </mxCell>
      </root>
    </mxGraphModel>
  </diagram>
</mxfile>
